<svg width="25" height="25" viewBox="0 0 25 25" fill="none" xmlns="http://www.w3.org/2000/svg">
<path d="M16.5 4.5H8.5C6.29086 4.5 4.5 6.29086 4.5 8.5V16.5C4.5 18.7091 6.29086 20.5 8.5 20.5H16.5C18.7091 20.5 20.5 18.7091 20.5 16.5V8.5C20.5 6.29086 18.7091 4.5 16.5 4.5Z" stroke="#4C4C4C" stroke-width="1.4" stroke-linecap="round" stroke-linejoin="round"/>
<path d="M12.5 15.5C14.1569 15.5 15.5 14.1569 15.5 12.5C15.5 10.8431 14.1569 9.5 12.5 9.5C10.8431 9.5 9.5 10.8431 9.5 12.5C9.5 14.1569 10.8431 15.5 12.5 15.5Z" stroke="#4C4C4C" stroke-width="1.4" stroke-linecap="round" stroke-linejoin="round"/>
<path d="M17 8V8.001" stroke="#4C4C4C" stroke-width="1.4" stroke-linecap="round" stroke-linejoin="round"/>
</svg>
