<svg width="38" height="38" viewBox="0 0 38 38" fill="none" xmlns="http://www.w3.org/2000/svg"><g opacity="0.2"><mask id="mask0_191_3373" style="mask-type:luminance" maskUnits="userSpaceOnUse" x="6" y="6" width="26" height="26"><path d="M14.1368 6.99562C12.8236 7.05761 11.9267 7.26795 11.1429 7.57507C10.3315 7.89137 9.64373 8.31527 8.95953 9.00227C8.27452 9.68968 7.85384 10.3787 7.53994 11.1909C7.23603 11.9766 7.03008 12.874 6.97209 14.188C6.91452 15.5045 6.90131 15.9244 6.90773 19.2758C6.91412 22.6269 6.92891 23.0476 6.99169 24.3644C7.05447 25.6773 7.26402 26.5738 7.57114 27.358C7.88784 28.1694 8.31131 28.8568 8.9987 29.5414C9.68571 30.226 10.3751 30.6463 11.1877 30.9606C11.9727 31.2642 12.8704 31.4709 14.184 31.5285C15.5004 31.5865 15.9207 31.5993 19.2714 31.5929C22.6236 31.5865 23.0439 31.5717 24.3603 31.5093C25.6735 31.4465 26.5696 31.2362 27.3542 30.9298C28.1656 30.6123 28.8534 30.1896 29.5376 29.5022C30.2218 28.8152 30.6425 28.1258 30.9564 27.3132C31.2603 26.5282 31.467 25.6305 31.5242 24.3177C31.5818 23.0004 31.5954 22.5797 31.589 19.2287C31.5826 15.8772 31.5674 15.4573 31.505 14.1413C31.4426 12.8272 31.2323 11.9311 30.9256 11.1465C30.6085 10.3351 30.1854 9.64809 29.4984 8.96309C28.8114 8.27888 28.122 7.85739 27.3094 7.54428C26.5241 7.24036 25.6267 7.03321 24.3131 6.97643C22.9967 6.91804 22.5764 6.90525 19.2246 6.91165C15.8735 6.91805 15.4533 6.93245 14.1368 6.99562ZM14.2808 29.3071C13.0775 29.2547 12.4241 29.0548 11.9887 28.8872C11.412 28.6641 11.0005 28.3965 10.5675 27.9667C10.1352 27.5352 9.86686 27.1249 9.64173 26.5494C9.47256 26.114 9.26904 25.4613 9.21265 24.2581C9.15147 22.9572 9.13748 22.5669 9.13148 19.2714C9.12508 15.9768 9.13706 15.5865 9.19386 14.2844C9.24543 13.0819 9.44659 12.4277 9.61373 11.9926C9.83686 11.4152 10.1036 11.0045 10.5343 10.5714C10.9657 10.1384 11.376 9.87083 11.9519 9.6457C12.3869 9.47574 13.0396 9.27379 14.2424 9.21662C15.544 9.15502 15.9339 9.14183 19.2286 9.13544C22.524 9.12903 22.9143 9.14064 24.2163 9.19782C25.4188 9.2502 26.073 9.44935 26.5077 9.6177C27.0847 9.84083 27.4962 10.1068 27.9289 10.5382C28.3615 10.9697 28.6299 11.3792 28.855 11.9563C29.0249 12.3901 29.2269 13.0436 29.2837 14.246C29.3456 15.5477 29.3596 15.938 29.3656 19.2327C29.372 22.5282 29.36 22.9184 29.3029 24.2197C29.2505 25.4229 29.0509 26.0768 28.883 26.5126C28.6598 27.0889 28.3931 27.5004 27.962 27.9335C27.531 28.3649 27.1207 28.6341 26.5444 28.8592C26.1102 29.0287 25.4568 29.2311 24.2547 29.2883C22.9531 29.3495 22.5632 29.3635 19.2673 29.3695C15.9727 29.3759 15.5828 29.3635 14.2808 29.3071ZM24.3423 12.6549C24.3439 13.4722 25.0085 14.1341 25.8259 14.1325C26.6436 14.1309 27.3054 13.4666 27.3042 12.6493C27.3026 11.8319 26.638 11.1697 25.8203 11.1713C25.0025 11.1729 24.3407 11.8375 24.3423 12.6549ZM12.9112 19.2642C12.918 22.7645 15.7608 25.5957 19.2601 25.5889C22.7599 25.5821 25.5927 22.7401 25.5859 19.2399C25.5791 15.7408 22.736 12.908 19.2358 12.9148C15.7364 12.9216 12.9044 15.7648 12.9112 19.2642ZM15.1341 19.2599C15.1301 16.9881 16.9688 15.1426 19.2402 15.1386C21.5119 15.1342 23.3578 16.9721 23.3622 19.2443C23.3666 21.5164 21.5279 23.3615 19.2558 23.3659C16.9844 23.3703 15.1385 21.532 15.1341 19.2599Z" fill="white"></path></mask><g mask="url(#mask0_191_3373)"><mask id="mask1_191_3373" style="mask-type:luminance" maskUnits="userSpaceOnUse" x="5" y="5" width="28" height="28"><path d="M32.573 5.94336H5.91406V32.6026H32.573V5.94336Z" fill="white"></path></mask><g mask="url(#mask1_191_3373)"><mask id="mask2_191_3373" style="mask-type:luminance" maskUnits="userSpaceOnUse" x="5" y="5" width="28" height="28"><path d="M32.687 5.82031H5.78125V32.7265H32.687V5.82031Z" fill="white"></path></mask><g mask="url(#mask2_191_3373)"><mask id="mask3_191_3373" style="mask-type:luminance" maskUnits="userSpaceOnUse" x="5" y="5" width="28" height="28"><path d="M32.687 5.82031H5.78125V32.7265H32.687V5.82031Z" fill="white"></path></mask><g mask="url(#mask3_191_3373)"><rect x="5.76562" y="5.81641" width="26.9196" height="26.9196" fill="white"></rect></g></g></g></g></g></svg>