<svg width="48" height="24" viewBox="0 0 48 24" fill="none" xmlns="http://www.w3.org/2000/svg"><path d="M35.628 22.846C35.628 22.846 35.6398 22.834 35.6487 22.825C35.6428 22.819 35.6398 22.813 35.6339 22.813C35.1566 22.744 34.9076 22.4261 34.7594 22.0003C34.7297 21.9133 34.7149 21.8173 34.7179 21.7274C34.7238 21.5174 34.8365 21.4334 35.041 21.4784C35.2663 21.5264 35.4916 21.5804 35.7169 21.6194C36.126 21.6884 36.5351 21.7064 36.9413 21.6044C37.4986 21.4664 37.9137 21.1245 38.1805 20.6207C38.3643 20.2728 38.5125 19.9009 38.6578 19.535C38.8653 19.0222 39.055 18.5004 39.2596 17.9845C39.2922 17.9066 39.2892 17.8406 39.2566 17.7626C38.972 17.0998 38.6874 16.437 38.4028 15.7742C37.6379 13.9898 36.8731 12.2054 36.1082 10.4179C35.7555 9.59318 35.4056 8.76844 35.0529 7.9437C34.8394 7.44286 34.2702 7.06198 33.7307 7.06198C33.6921 7.06198 33.6477 7.07097 33.618 7.05598C33.5884 7.04098 33.5706 7.00199 33.5469 6.972C33.5706 6.95701 33.5973 6.92402 33.621 6.92402C33.9352 6.92102 34.2495 6.91802 34.5608 6.91802C35.3997 6.91802 36.2357 6.91802 37.0747 6.91802C37.128 6.91802 37.214 6.89103 37.214 6.978C37.214 7.06797 37.131 7.05598 37.0658 7.06198C36.9146 7.07697 36.7604 7.09197 36.6093 7.11296C36.5677 7.11896 36.5262 7.13995 36.4847 7.16094C36.3247 7.24492 36.2743 7.36188 36.3424 7.52983C36.4492 7.79974 36.5618 8.06366 36.6715 8.33058C37.7269 10.8648 38.7823 13.399 39.8406 15.9362C39.8762 16.0172 39.9118 16.0981 39.9533 16.1971C39.971 16.1611 39.9829 16.1341 39.9918 16.1101C40.8634 13.8488 41.7349 11.5845 42.6095 9.32326C42.8229 8.77444 43.0334 8.22261 43.2469 7.67378C43.3477 7.40687 43.2795 7.25092 43.0097 7.15195C42.817 7.07997 42.6125 7.06198 42.4079 7.06198C42.3723 7.06198 42.3308 7.07097 42.3041 7.05598C42.2775 7.04098 42.2567 7.00499 42.2449 6.972C42.2449 6.96301 42.2834 6.92702 42.3101 6.92402C42.3694 6.91502 42.4286 6.91802 42.4879 6.91802C43.4514 6.91802 44.4179 6.91802 45.3813 6.91802C45.408 6.91802 45.4377 6.91202 45.4614 6.92102C45.4881 6.93602 45.5088 6.96301 45.5355 6.984C45.5118 7.00799 45.494 7.04398 45.4643 7.05298C45.4228 7.06497 45.3754 7.05898 45.3309 7.05898C44.9307 7.06497 44.5424 7.12796 44.1777 7.3079C43.9139 7.43986 43.7153 7.6288 43.6026 7.91971C43.0542 9.32026 42.4968 10.7178 41.9425 12.1154C41.3881 13.5129 40.8337 14.9105 40.2794 16.3111C39.8228 17.4597 39.3692 18.6113 38.9127 19.757C38.634 20.4558 38.299 21.1275 37.8158 21.7124C37.4037 22.2102 36.9087 22.5821 36.2832 22.759C36.2031 22.783 36.1171 22.792 36.0401 22.807C36.0578 22.816 36.0845 22.828 36.1082 22.843C35.9482 22.843 35.7881 22.843 35.628 22.843V22.846Z" fill="white"></path><path d="M6.53277 9.72544C6.681 9.74043 6.83219 9.75543 6.98042 9.77342C9.07932 10.0433 10.609 11.075 11.365 13.1324C11.5695 13.6872 11.7 14.263 11.8067 14.8448C11.9134 15.4206 12.0142 15.9965 12.1298 16.5693C12.1624 16.7372 12.2336 16.8992 12.3077 17.0551C12.4648 17.388 12.7346 17.562 13.1022 17.58C13.1496 17.58 13.1971 17.592 13.2386 17.61C13.2979 17.6369 13.3008 17.6909 13.2475 17.7299C13.2208 17.7509 13.1852 17.7689 13.1526 17.7749C12.9392 17.8139 12.7227 17.8649 12.5063 17.8859C11.9609 17.9369 11.5251 17.7389 11.2108 17.2741C10.9914 16.9472 10.8462 16.5843 10.7424 16.2064C10.5972 15.6756 10.4815 15.1357 10.3481 14.5989C10.0724 13.5072 9.6159 12.5146 8.84215 11.6868C8.18402 10.982 7.38656 10.5172 6.47052 10.2413C6.04362 10.1123 5.60487 10.0403 5.16019 10.0433C4.98528 10.0433 4.81037 10.0943 4.63843 10.1303C4.36569 10.1933 4.09295 10.2653 3.82021 10.3312C3.75796 10.3462 3.73424 10.3762 3.73721 10.4422C3.73721 12.5835 3.73721 14.7219 3.74314 16.8632C3.74314 17.328 4.04552 17.6669 4.52281 17.7539C4.61471 17.7719 4.71254 17.7689 4.80444 17.7869C4.83705 17.7929 4.8667 17.8289 4.89634 17.8499C4.8667 17.8739 4.84298 17.9129 4.81037 17.9189C4.74812 17.9339 4.67993 17.9309 4.61768 17.9309C3.59787 17.9309 2.57511 17.9309 1.5553 17.9309C1.52566 17.9309 1.49601 17.9309 1.46637 17.9249C1.4219 17.9159 1.36854 17.9009 1.38632 17.8439C1.39522 17.8169 1.43969 17.7869 1.4723 17.7809C1.55827 17.7659 1.65017 17.7659 1.73614 17.7539C2.13339 17.6909 2.43281 17.421 2.50989 17.0521C2.52471 16.9802 2.52767 16.9052 2.52767 16.8302C2.52767 12.4816 2.52767 8.13294 2.52767 3.78431C2.52767 3.65235 2.53953 3.5174 2.50989 3.39144C2.41798 2.98656 2.13932 2.77363 1.75393 2.68966C1.66499 2.67166 1.57012 2.67766 1.48119 2.66267C1.44561 2.65667 1.39522 2.62368 1.38929 2.59369C1.37447 2.53371 1.43079 2.51571 1.48119 2.51271C1.60273 2.51271 1.72428 2.51271 1.84583 2.51271C2.38241 2.51271 2.91899 2.52471 3.45261 2.50972C4.09888 2.49172 4.74812 2.44973 5.39439 2.41974C6.26893 2.38076 7.14643 2.36876 8.02097 2.42574C8.75025 2.47073 9.4736 2.57569 10.1703 2.81562C10.612 2.96857 11.0241 3.1755 11.3828 3.48741C11.8541 3.89828 12.115 4.42311 12.2277 5.03192C12.3551 5.7247 12.2929 6.38749 11.9401 7.0083C11.6852 7.45516 11.3353 7.80904 10.9233 8.10895C10.4104 8.48383 9.83824 8.73875 9.2483 8.95468C8.55163 9.2096 7.83717 9.39254 7.11679 9.56049C6.92113 9.60548 6.72843 9.65646 6.53574 9.70145C6.53574 9.71044 6.53574 9.71644 6.53574 9.72544H6.53277ZM3.7461 10.1123C3.77278 10.1093 3.78464 10.1063 3.79353 10.1033C4.06331 10.0313 4.33605 9.95937 4.60582 9.88139C5.52779 9.62047 6.44977 9.36555 7.36581 9.08964C8.01208 8.8947 8.6376 8.64278 9.22754 8.30689C9.63665 8.07596 10.0072 7.80005 10.3037 7.42816C10.7988 6.81036 10.9559 6.10858 10.8521 5.32883C10.7572 4.61205 10.3956 4.08122 9.7997 3.69734C9.36984 3.41843 8.89551 3.24748 8.4034 3.11852C7.55554 2.89659 6.68693 2.80962 5.81535 2.76763C5.28173 2.74064 4.74515 2.73464 4.20857 2.71965C4.05145 2.71665 3.89729 2.71965 3.74017 2.71965V10.1093L3.7461 10.1123Z" fill="white"></path><path d="M16.9899 17.0545C16.9899 17.0995 16.9899 17.1235 16.9899 17.1445C17.0225 17.3784 17.0522 17.6123 17.0937 17.8433C17.1055 17.9182 17.0848 17.9302 17.0196 17.9302C16.3614 17.9302 15.7063 17.9302 15.0481 17.9302C14.9533 17.9302 14.8584 17.9302 14.7635 17.9332C14.7369 17.9332 14.7042 17.9392 14.6865 17.9272C14.6568 17.9062 14.6331 17.8733 14.6094 17.8463C14.639 17.8253 14.6657 17.7893 14.6953 17.7863C14.811 17.7653 14.9325 17.7683 15.0452 17.7383C15.4068 17.6453 15.6618 17.4324 15.7448 17.0485C15.7596 16.9825 15.7596 16.9106 15.7596 16.8446C15.7596 12.457 15.7596 8.06935 15.7596 3.68173C15.7596 3.62175 15.7596 3.56177 15.7596 3.50179C15.7596 3.11191 15.5195 2.821 15.1371 2.74903C15.0807 2.74003 15.0244 2.73703 14.971 2.72203C14.9473 2.71604 14.9295 2.68605 14.9088 2.66805C14.9295 2.64706 14.9473 2.61107 14.971 2.60807C15.564 2.5181 15.982 2.14022 16.3911 1.74734C16.566 1.57939 16.729 1.39645 16.898 1.21951C16.9188 1.19851 16.9454 1.17752 16.978 1.14453V8.84011C17.2122 8.72914 17.4346 8.61218 17.6658 8.51621C18.3921 8.2073 19.154 8.05735 19.9426 8.04236C20.6511 8.02736 21.3507 8.10234 22.0267 8.31827C23.5238 8.80112 24.5791 9.78181 25.1958 11.2393C25.4122 11.7492 25.5604 12.277 25.5723 12.8318C25.59 13.8395 25.4033 14.8052 24.9171 15.6959C24.2856 16.8566 23.3133 17.5763 22.0622 17.9362C21.2648 18.1672 20.4495 18.2181 19.6283 18.1372C18.9258 18.0682 18.2587 17.8763 17.6451 17.5224C17.4524 17.4084 17.2745 17.2674 17.0907 17.1385C17.0611 17.1175 17.0344 17.0965 16.9869 17.0605L16.9899 17.0545ZM16.9721 12.5889C16.9721 13.7196 16.9721 14.8472 16.9721 15.9779C16.9721 16.0318 16.9869 16.0918 17.0166 16.1368C17.3723 16.7216 17.8674 17.1565 18.4574 17.4834C19.0947 17.8373 19.7795 18.0232 20.5059 17.9092C21.9644 17.6753 23.0435 16.9046 23.669 15.531C23.9418 14.9372 24.0752 14.3074 24.1374 13.6566C24.2175 12.8348 24.1463 12.0281 23.8765 11.2453C23.5564 10.3126 23.005 9.55688 22.1541 9.05604C21.1966 8.49221 20.156 8.29128 19.0562 8.42624C18.3417 8.51321 17.6777 8.76813 17.0314 9.08003C16.9869 9.10102 16.9662 9.12801 16.9662 9.182C16.9662 10.3186 16.9662 11.4523 16.9662 12.5889H16.9721Z" fill="white"></path><path d="M28.0679 6.92206C28.0679 6.74812 28.0679 6.58617 28.0679 6.42722C28.0738 5.96536 28.0649 5.50051 28.0946 5.03865C28.145 4.2619 28.3317 3.51514 28.7379 2.84335C29.2774 1.95263 30.066 1.43379 31.0888 1.28984C32.0937 1.14588 33.0217 1.35582 33.8606 1.94063C34.2045 2.18056 34.4772 2.48046 34.5958 2.89733C34.667 3.14325 34.6788 3.38918 34.498 3.60211C34.3438 3.78205 34.1393 3.87202 33.911 3.90501C33.7598 3.92601 33.6709 3.82404 33.6798 3.65009C33.7005 3.26022 33.6086 2.89733 33.4308 2.55544C33.1699 2.0486 32.7963 1.65572 32.242 1.49377C31.5483 1.28984 30.905 1.43979 30.3387 1.88965C29.8674 2.26453 29.6184 2.78936 29.4583 3.35918C29.3427 3.77005 29.2804 4.18692 29.2774 4.61279C29.2715 5.36255 29.2626 6.11232 29.2567 6.86208C29.2567 6.88007 29.2596 6.89507 29.2626 6.92506H29.3604C30.1964 6.92506 31.0295 6.92506 31.8655 6.92506C31.907 6.92506 31.9485 6.92506 31.987 6.93706C32.0078 6.94305 32.0345 6.97304 32.0315 6.99104C32.0315 7.01503 32.0078 7.04802 31.987 7.05402C31.9514 7.06602 31.9129 7.06602 31.8744 7.06602C31.0413 7.06602 30.2113 7.06602 29.3782 7.06602H29.2626C29.2626 7.09601 29.2567 7.12 29.2567 7.14699C29.2567 10.296 29.2567 13.448 29.2567 16.597C29.2567 16.747 29.2596 16.8969 29.2863 17.0439C29.3575 17.4158 29.651 17.6827 30.0541 17.7516C30.146 17.7666 30.2439 17.7666 30.3358 17.7816C30.3625 17.7846 30.3891 17.8146 30.4129 17.8326C30.3891 17.8626 30.3713 17.9106 30.3447 17.9166C30.2824 17.9316 30.2172 17.9316 30.152 17.9316C29.1292 17.9316 28.1035 17.9316 27.0807 17.9316C27.0481 17.9316 27.0125 17.9376 26.9858 17.9256C26.9532 17.9106 26.9295 17.8746 26.9028 17.8506C26.9325 17.8266 26.9592 17.7876 26.9918 17.7816C27.0748 17.7666 27.1637 17.7696 27.2467 17.7576C27.7477 17.6827 28.059 17.3258 28.0679 16.8129C28.0709 16.579 28.0679 16.3481 28.0679 16.1142C28.0679 13.319 28.0679 10.5239 28.0679 7.72881C28.0679 7.53087 28.0679 7.33293 28.0679 7.13799C28.0679 7.117 28.0649 7.09901 28.062 7.06602H27.9552C27.5787 7.06602 27.2022 7.06602 26.8287 7.06602C26.7991 7.06602 26.7635 7.07201 26.7427 7.06002C26.719 7.04802 26.6983 7.01503 26.6953 6.98804C26.6953 6.97005 26.725 6.93706 26.7457 6.93106C26.7813 6.91906 26.8228 6.92206 26.8613 6.92206C27.2349 6.92206 27.6084 6.92206 27.979 6.92206C28.0056 6.92206 28.0323 6.92206 28.0709 6.92206H28.0679Z" fill="white"></path><path d="M45.9408 17.9101C45.3834 17.8981 44.9328 17.4092 44.9891 16.8664C45.0306 16.4675 45.3449 16.1466 45.7807 16.0597C46.2402 15.9667 46.759 16.2726 46.8864 16.7075C47.0317 17.1993 46.7293 17.7152 46.2105 17.8591C46.1216 17.8831 46.0297 17.8921 45.9408 17.9071V17.9101Z" fill="white"></path></svg>