<svg width="38" height="38" viewBox="0 0 38 38" fill="none" xmlns="http://www.w3.org/2000/svg"><path d="M18.996 8.06055C25.6748 8.06055 31.0881 12.2797 31.0881 17.4857C31.0881 22.6905 25.6748 26.9097 18.9972 26.9097C18.3322 26.91 17.668 26.8677 17.0085 26.783L11.9326 30.1028C11.3557 30.408 11.1519 30.3746 11.3891 29.6273L12.4162 25.392C9.09989 23.7108 6.90625 20.7975 6.90625 17.4857C6.90625 12.2809 12.3184 8.06055 18.9972 8.06055H18.996ZM25.7992 17.3418L27.4919 15.702C27.5896 15.6006 27.6441 15.4652 27.6439 15.3244C27.6437 15.1835 27.5889 15.0483 27.491 14.9471C27.3931 14.8459 27.2597 14.7866 27.1189 14.7818C26.9782 14.777 26.8411 14.827 26.7365 14.9213L24.5164 17.07V15.2944C24.5164 15.1502 24.4591 15.012 24.3572 14.91C24.2552 14.8081 24.117 14.7509 23.9729 14.7509C23.8287 14.7509 23.6905 14.8081 23.5885 14.91C23.4866 15.012 23.4293 15.1502 23.4293 15.2944V18.2388C23.409 18.3228 23.409 18.4104 23.4293 18.4944V20.1515C23.4293 20.2956 23.4866 20.4339 23.5885 20.5358C23.6905 20.6377 23.8287 20.695 23.9729 20.695C24.117 20.695 24.2552 20.6377 24.3572 20.5358C24.4591 20.4339 24.5164 20.2956 24.5164 20.1515V18.5819L25.0081 18.1064L26.6524 20.4474C26.6935 20.5058 26.7457 20.5556 26.806 20.5939C26.8662 20.6322 26.9335 20.6582 27.0039 20.6705C27.0742 20.6828 27.1463 20.6811 27.216 20.6656C27.2857 20.65 27.3517 20.6209 27.4101 20.5798C27.4686 20.5388 27.5184 20.4866 27.5566 20.4263C27.5949 20.366 27.621 20.2988 27.6333 20.2284C27.6456 20.158 27.6439 20.0859 27.6283 20.0162C27.6128 19.9465 27.5836 19.8806 27.5426 19.8221L25.7992 17.3406V17.3418ZM22.393 19.5573H20.7118V15.3116C20.7053 15.172 20.6453 15.0401 20.5442 14.9436C20.4431 14.847 20.3086 14.7931 20.1688 14.7931C20.029 14.7931 19.8946 14.847 19.7934 14.9436C19.6923 15.0401 19.6323 15.172 19.6259 15.3116V20.1008C19.6259 20.4002 19.8677 20.6443 20.1682 20.6443H22.393C22.5371 20.6443 22.6754 20.587 22.7773 20.4851C22.8792 20.3832 22.9365 20.2449 22.9365 20.1008C22.9365 19.9566 22.8792 19.8184 22.7773 19.7165C22.6754 19.6145 22.5371 19.5573 22.393 19.5573ZM15.6486 18.301L16.45 16.3342L17.1847 18.2998L15.6486 18.301ZM18.5538 18.8618L18.5561 18.8433C18.5559 18.7064 18.5036 18.5747 18.4099 18.4748L17.2054 15.2506C17.1549 15.097 17.0587 14.9624 16.9297 14.8648C16.8007 14.7673 16.645 14.7115 16.4834 14.7048C16.3206 14.7041 16.1615 14.7529 16.0272 14.8449C15.8928 14.9368 15.7897 15.0675 15.7315 15.2195L13.8176 19.9119C13.7631 20.0454 13.7639 20.1951 13.8197 20.328C13.8755 20.4609 13.9819 20.5662 14.1153 20.6207C14.2488 20.6752 14.3984 20.6745 14.5313 20.6187C14.6643 20.5628 14.7696 20.4565 14.8241 20.323L15.2064 19.3869H17.59L17.9332 20.3081C17.9566 20.3769 17.9936 20.4404 18.0419 20.4947C18.0903 20.549 18.1491 20.593 18.2148 20.6242C18.2805 20.6554 18.3518 20.673 18.4245 20.6761C18.4972 20.6793 18.5697 20.6678 18.6378 20.6423C18.706 20.6169 18.7683 20.578 18.8212 20.5281C18.874 20.4781 18.9163 20.418 18.9455 20.3514C18.9747 20.2848 18.9903 20.213 18.9912 20.1403C18.9922 20.0676 18.9785 19.9954 18.9511 19.9281L18.5538 18.8618ZM14.7285 15.3174C14.7285 15.1734 14.6714 15.0354 14.5697 14.9335C14.468 14.8316 14.3301 14.7742 14.1861 14.7739H10.4495C10.3053 14.7739 10.1671 14.8311 10.0651 14.9331C9.96321 15.035 9.90595 15.1732 9.90595 15.3174C9.90595 15.4615 9.96321 15.5998 10.0651 15.7017C10.1671 15.8036 10.3053 15.8609 10.4495 15.8609H11.7852V20.163C11.7852 20.3071 11.8425 20.4454 11.9444 20.5473C12.0463 20.6492 12.1846 20.7065 12.3287 20.7065C12.4729 20.7065 12.6111 20.6492 12.7131 20.5473C12.815 20.4454 12.8723 20.3071 12.8723 20.163V15.8609H14.185C14.3291 15.8609 14.4674 15.8036 14.5693 15.7017C14.6712 15.5998 14.7285 15.4615 14.7285 15.3174Z" fill="#5A5A5A"></path></svg>