<svg width="38" height="38" viewBox="0 0 38 38" fill="none" xmlns="http://www.w3.org/2000/svg"><path fill-rule="evenodd" clip-rule="evenodd" d="M16.5719 12.0216C16.5719 10.8114 17.553 9.83027 18.7632 9.83027C19.9735 9.83027 20.9546 10.8114 20.9546 12.0216V13.4918H16.5719V12.0216ZM15.2719 14.7918V16.5062H16.5719V14.7918H20.9546V16.5062H22.2546V14.7918H24.6756V24.6097C24.6756 25.2114 24.1878 25.6991 23.5861 25.6991H13.9442C13.3425 25.6991 12.8547 25.2114 12.8547 24.6097V14.7918H15.2719ZM15.2719 13.4918V12.0216C15.2719 10.0934 16.835 8.53027 18.7632 8.53027C20.6914 8.53027 22.2546 10.0934 22.2546 12.0216V13.4918H24.6756H25.9756V14.7918V24.6097C25.9756 25.9293 24.9058 26.9991 23.5861 26.9991H13.9442C12.6245 26.9991 11.5547 25.9293 11.5547 24.6097V14.7918V13.4918H12.8547H15.2719Z" fill="white"></path></svg>