<svg width="30" height="30" viewBox="0 0 30 30" fill="none" xmlns="http://www.w3.org/2000/svg"><path fill-rule="evenodd" clip-rule="evenodd" d="M12.7148 8.79596C12.7148 7.64961 13.6441 6.72031 14.7904 6.72031C15.9367 6.72031 16.866 7.64961 16.866 8.79596V10.1036H12.7148V8.79596ZM11.8148 11.0036V12.7823H12.7148V11.0036H16.866V12.7823H17.766V11.0036H20.3014V19.9862C20.3014 20.6622 19.7534 21.2102 19.0774 21.2102H10.5068C9.83081 21.2102 9.28281 20.6622 9.28281 19.9862V11.0036H11.8148ZM11.8148 10.1036V8.79596C11.8148 7.15255 13.147 5.82031 14.7904 5.82031C16.4338 5.82031 17.766 7.15255 17.766 8.79596V10.1036H20.3014H21.2014V11.0036V19.9862C21.2014 21.1592 20.2505 22.1102 19.0774 22.1102H10.5068C9.33375 22.1102 8.38281 21.1592 8.38281 19.9862V11.0036V10.1036H9.28281H11.8148Z" fill="white"></path></svg>