<svg width="82" height="44" viewBox="0 0 82 44" fill="none" xmlns="http://www.w3.org/2000/svg"><path d="M61.0226 40.6944C61.0226 40.6944 61.0431 40.6738 61.0584 40.6583C61.0482 40.6479 61.043 40.6376 61.0328 40.6376C60.2106 40.5188 59.7816 39.9711 59.5263 39.2375C59.4752 39.0877 59.4497 38.9223 59.4548 38.7673C59.465 38.4057 59.659 38.261 60.0114 38.3385C60.3996 38.4212 60.7877 38.5142 61.1758 38.5813C61.8806 38.7002 62.5854 38.7312 63.285 38.5555C64.2451 38.3179 64.9601 37.7289 65.4198 36.8609C65.7364 36.2616 65.9917 35.621 66.242 34.9907C66.5995 34.1072 66.9263 33.2082 67.2787 32.3196C67.3349 32.1853 67.3298 32.0716 67.2736 31.9373C66.7833 30.7955 66.2931 29.6537 65.8028 28.5119C64.4852 25.4379 63.1676 22.3638 61.85 19.2846C61.2422 17.8638 60.6396 16.4431 60.0319 15.0223C59.6642 14.1595 58.6836 13.5033 57.7541 13.5033C57.6877 13.5033 57.6111 13.5188 57.5601 13.493C57.509 13.4672 57.4784 13.4 57.4375 13.3484C57.4784 13.3225 57.5243 13.2657 57.5652 13.2657C58.1065 13.2605 58.6479 13.2554 59.1841 13.2554C60.6294 13.2554 62.0696 13.2554 63.5148 13.2554C63.6068 13.2554 63.7549 13.2089 63.7549 13.3587C63.7549 13.5137 63.6119 13.493 63.4995 13.5033C63.2391 13.5292 62.9735 13.555 62.713 13.5912C62.6415 13.6015 62.57 13.6377 62.4985 13.6738C62.2228 13.8185 62.1359 14.02 62.2534 14.3093C62.4373 14.7743 62.6313 15.2289 62.8203 15.6888C64.6384 20.0544 66.4565 24.4201 68.2797 28.7909C68.341 28.9304 68.4023 29.0699 68.4738 29.2404C68.5044 29.1784 68.5248 29.1319 68.5401 29.0906C70.0416 25.195 71.5431 21.2944 73.0496 17.3989C73.4173 16.4534 73.7799 15.5028 74.1476 14.5573C74.3213 14.0975 74.2038 13.8288 73.7391 13.6583C73.4071 13.5343 73.0547 13.5033 72.7024 13.5033C72.6411 13.5033 72.5696 13.5188 72.5236 13.493C72.4776 13.4672 72.4419 13.4052 72.4215 13.3484C72.4215 13.3329 72.4879 13.2709 72.5338 13.2657C72.636 13.2502 72.7381 13.2554 72.8402 13.2554C74.5 13.2554 76.1649 13.2554 77.8247 13.2554C77.8706 13.2554 77.9217 13.245 77.9626 13.2605C78.0085 13.2864 78.0443 13.3329 78.0902 13.369C78.0494 13.4103 78.0188 13.4723 77.9677 13.4878C77.8962 13.5085 77.8145 13.4982 77.7379 13.4982C77.0484 13.5085 76.3794 13.617 75.7512 13.927C75.2967 14.1543 74.9545 14.4798 74.7605 14.981C73.8157 17.3937 72.8556 19.8013 71.9006 22.2088C70.9455 24.6164 69.9905 27.024 69.0355 29.4367C68.249 31.4155 67.4677 33.3994 66.6812 35.373C66.2011 36.5768 65.624 37.734 64.7916 38.7415C64.0817 39.5991 63.2289 40.2398 62.1513 40.5446C62.0134 40.5859 61.8653 40.6014 61.7325 40.6273C61.7631 40.6428 61.8091 40.6634 61.85 40.6893C61.5742 40.6893 61.2984 40.6893 61.0226 40.6893V40.6944Z" fill="white"></path><path d="M10.9031 18.0867C11.1584 18.1126 11.4189 18.1384 11.6742 18.1694C15.29 18.6344 17.9252 20.4116 19.2275 23.9558C19.5799 24.9116 19.8046 25.9036 19.9884 26.9059C20.1723 27.8978 20.3459 28.8898 20.5451 29.8766C20.6013 30.1659 20.7238 30.4449 20.8515 30.7136C21.1222 31.287 21.5869 31.5867 22.2202 31.6177C22.3019 31.6177 22.3836 31.6383 22.4551 31.6693C22.5573 31.7158 22.5624 31.8088 22.4704 31.876C22.4245 31.9122 22.3632 31.9432 22.307 31.9535C21.9393 32.0207 21.5665 32.1085 21.1937 32.1447C20.254 32.2325 19.5033 31.8915 18.9619 31.0907C18.584 30.5276 18.3338 29.9024 18.155 29.2514C17.9048 28.337 17.7056 27.407 17.4758 26.4822C17.0008 24.6016 16.2144 22.8915 14.8814 21.4656C13.7477 20.2515 12.3739 19.4507 10.7958 18.9754C10.0604 18.7532 9.30457 18.6292 8.53852 18.6344C8.23721 18.6344 7.93589 18.7222 7.63969 18.7842C7.16984 18.8927 6.7 19.0167 6.23015 19.1303C6.12291 19.1562 6.08205 19.2078 6.08716 19.3215C6.08716 23.0104 6.08716 26.694 6.09737 30.3829C6.09737 31.1837 6.61829 31.7675 7.44051 31.9173C7.59883 31.9483 7.76736 31.9432 7.92568 31.9742C7.98186 31.9845 8.03293 32.0465 8.084 32.0827C8.03293 32.124 7.99207 32.1912 7.93589 32.2015C7.82865 32.2273 7.71119 32.2222 7.60394 32.2222C5.84713 32.2222 4.08521 32.2222 2.3284 32.2222C2.27733 32.2222 2.22626 32.2222 2.17519 32.2118C2.09858 32.1963 2.00666 32.1705 2.0373 32.0723C2.05262 32.0258 2.12922 31.9742 2.1854 31.9638C2.3335 31.938 2.49182 31.938 2.63993 31.9173C3.32426 31.8088 3.84007 31.3439 3.97285 30.7084C3.99839 30.5844 4.0035 30.4552 4.0035 30.3261C4.0035 22.8347 4.0035 15.3433 4.0035 7.85197C4.0035 7.62464 4.02392 7.39215 3.97285 7.17516C3.81454 6.47769 3.33448 6.11087 2.67057 5.96621C2.51736 5.93521 2.35393 5.94554 2.20072 5.91971C2.13944 5.90938 2.05262 5.85255 2.0424 5.80088C2.01687 5.69755 2.1139 5.66655 2.20072 5.66139C2.41011 5.66139 2.6195 5.66139 2.82888 5.66139C3.75325 5.66139 4.67762 5.68205 5.59688 5.65622C6.71021 5.62522 7.82865 5.55289 8.94198 5.50123C10.4485 5.43406 11.9602 5.4134 13.4668 5.51156C14.7231 5.58906 15.9692 5.76988 17.1694 6.1832C17.9303 6.44669 18.6402 6.80318 19.2581 7.34049C20.0702 8.04829 20.5196 8.95242 20.7136 10.0012C20.9332 11.1947 20.826 12.3365 20.2183 13.4059C19.7791 14.1757 19.1764 14.7854 18.4665 15.302C17.583 15.9478 16.5974 16.387 15.5811 16.7589C14.3809 17.1981 13.1502 17.5132 11.9091 17.8026C11.5721 17.8801 11.2401 17.9679 10.9082 18.0454C10.9082 18.0609 10.9082 18.0712 10.9082 18.0867H10.9031ZM6.10248 18.7532C6.14844 18.748 6.16887 18.7429 6.18419 18.7377C6.64893 18.6137 7.11877 18.4897 7.58351 18.3554C9.17179 17.9059 10.7601 17.4667 12.3381 16.9914C13.4515 16.6556 14.529 16.2216 15.5453 15.643C16.2501 15.2452 16.8885 14.7699 17.3992 14.1292C18.2521 13.0649 18.5227 11.856 18.344 10.5127C18.1806 9.27791 17.5575 8.36345 16.531 7.70214C15.7905 7.22166 14.9734 6.92717 14.1256 6.70501C12.665 6.32269 11.1686 6.17287 9.66717 6.10054C8.74791 6.05404 7.82354 6.04371 6.89917 6.01787C6.6285 6.01271 6.36294 6.01787 6.09226 6.01787V18.748L6.10248 18.7532Z" fill="white"></path><path d="M28.9134 30.7137C28.9134 30.7912 28.9134 30.8326 28.9134 30.8687C28.9696 31.2717 29.0207 31.6747 29.0922 32.0725C29.1126 32.2017 29.0769 32.2223 28.9645 32.2223C27.8307 32.2223 26.7021 32.2223 25.5683 32.2223C25.4049 32.2223 25.2415 32.2223 25.0781 32.2275C25.0321 32.2275 24.9759 32.2378 24.9453 32.2172C24.8942 32.181 24.8534 32.1242 24.8125 32.0777C24.8636 32.0415 24.9095 31.9795 24.9606 31.9743C25.1598 31.9382 25.3692 31.9433 25.5632 31.8917C26.1863 31.7315 26.6255 31.3647 26.7685 30.7034C26.794 30.5897 26.794 30.4657 26.794 30.3521C26.794 22.7935 26.794 15.235 26.794 7.67649C26.794 7.57316 26.794 7.46983 26.794 7.3665C26.794 6.69486 26.3804 6.19371 25.7215 6.06972C25.6245 6.05422 25.5275 6.04905 25.4356 6.02322C25.3947 6.01289 25.3641 5.96122 25.3283 5.93023C25.3641 5.89406 25.3947 5.83206 25.4356 5.8269C26.457 5.6719 27.177 5.02093 27.8818 4.34412C28.1831 4.0548 28.464 3.73965 28.7551 3.43483C28.7909 3.39866 28.8368 3.3625 28.893 3.30566V16.5628C29.2965 16.3716 29.6795 16.1701 30.0778 16.0048C31.329 15.4727 32.6415 15.2144 34 15.1885C35.2206 15.1627 36.4258 15.2919 37.5902 15.6638C40.1693 16.4956 41.9874 18.1851 43.0496 20.696C43.4224 21.5743 43.6778 22.4836 43.6982 23.4394C43.7289 25.1753 43.4071 26.8389 42.5696 28.3733C41.4818 30.3727 39.8067 31.6127 37.6515 32.2327C36.2777 32.6305 34.8733 32.7183 33.4587 32.5788C32.2483 32.46 31.0992 32.1293 30.0421 31.5197C29.7101 31.3234 29.4037 31.0806 29.0871 30.8584C29.036 30.8222 28.99 30.7861 28.9083 30.7241L28.9134 30.7137ZM28.8828 23.0209C28.8828 24.9686 28.8828 26.9112 28.8828 28.859C28.8828 28.952 28.9083 29.0553 28.9594 29.1328C29.5722 30.1403 30.4251 30.8894 31.4414 31.4525C32.5394 32.0622 33.7191 32.3825 34.9703 32.1862C37.483 31.7832 39.3419 30.4554 40.4195 28.0892C40.8894 27.0662 41.1192 25.9813 41.2264 24.8601C41.3643 23.4445 41.2418 22.0547 40.777 20.7063C40.2255 19.0995 39.2756 17.7976 37.8098 16.9348C36.1603 15.9635 34.3677 15.6173 32.473 15.8498C31.2422 15.9997 30.0983 16.4388 28.9849 16.9761C28.9083 17.0123 28.8726 17.0588 28.8726 17.1518C28.8726 19.1099 28.8726 21.0628 28.8726 23.0209H28.8828Z" fill="white"></path><path d="M48.0052 13.2609C48.0052 12.9612 48.0052 12.6822 48.0052 12.4084C48.0154 11.6128 48.0001 10.812 48.0511 10.0163C48.138 8.67823 48.4597 7.39178 49.1594 6.23449C50.0888 4.70005 51.4473 3.80626 53.2092 3.55827C54.9405 3.31028 56.539 3.67193 57.9843 4.67939C58.5767 5.09271 59.0465 5.60935 59.2508 6.32749C59.3734 6.75114 59.3938 7.17479 59.0823 7.54161C58.8167 7.85159 58.4643 8.00659 58.0711 8.06342C57.8106 8.09958 57.6574 7.92392 57.6727 7.62427C57.7085 6.95263 57.5502 6.32749 57.2438 5.73851C56.7943 4.86538 56.1509 4.18857 55.1958 3.90959C54.0008 3.55827 52.8926 3.81659 51.9171 4.59156C51.1051 5.23737 50.6761 6.1415 50.4004 7.12312C50.2012 7.83093 50.0939 8.54907 50.0888 9.2827C50.0786 10.5743 50.0633 11.8659 50.0531 13.1575C50.0531 13.1885 50.0582 13.2144 50.0633 13.266H50.2318C51.672 13.266 53.1071 13.266 54.5472 13.266C54.6187 13.266 54.6902 13.266 54.7566 13.2867C54.7924 13.297 54.8384 13.3487 54.8332 13.3797C54.8332 13.421 54.7924 13.4779 54.7566 13.4882C54.6954 13.5089 54.629 13.5089 54.5626 13.5089C53.1275 13.5089 51.6975 13.5089 50.2625 13.5089H50.0633C50.0633 13.5605 50.0531 13.6019 50.0531 13.6484C50.0531 19.0731 50.0531 24.5031 50.0531 29.9279C50.0531 30.1862 50.0582 30.4445 50.1042 30.6977C50.2267 31.3383 50.7323 31.7981 51.4269 31.917C51.5852 31.9428 51.7537 31.9428 51.912 31.9686C51.958 31.9738 52.004 32.0255 52.0448 32.0565C52.004 32.1081 51.9733 32.1908 51.9274 32.2011C51.8201 32.2269 51.7078 32.2269 51.5954 32.2269C49.8335 32.2269 48.0665 32.2269 46.3045 32.2269C46.2484 32.2269 46.1871 32.2373 46.1411 32.2166C46.0849 32.1908 46.0441 32.1288 45.9981 32.0875C46.0492 32.0461 46.0951 31.979 46.1513 31.9686C46.2943 31.9428 46.4475 31.948 46.5905 31.9273C47.4536 31.7981 47.9898 31.1833 48.0052 30.2999C48.0103 29.8969 48.0052 29.4991 48.0052 29.0961C48.0052 24.2809 48.0052 19.4658 48.0052 14.6507C48.0052 14.3097 48.0052 13.9687 48.0052 13.6329C48.0052 13.5967 48.0001 13.5657 47.995 13.5089H47.8111C47.1625 13.5089 46.5139 13.5089 45.8704 13.5089C45.8194 13.5089 45.7581 13.5192 45.7223 13.4985C45.6815 13.4779 45.6457 13.421 45.6406 13.3745C45.6406 13.3435 45.6917 13.2867 45.7274 13.2764C45.7887 13.2557 45.8602 13.2609 45.9266 13.2609C46.5701 13.2609 47.2136 13.2609 47.852 13.2609C47.8979 13.2609 47.9439 13.2609 48.0103 13.2609H48.0052Z" fill="white"></path><path d="M78.7882 32.1852C77.8281 32.1646 77.0518 31.3224 77.1488 30.3873C77.2203 29.7002 77.7617 29.1474 78.5124 28.9975C79.304 28.8374 80.1977 29.3643 80.4173 30.1135C80.6676 30.9608 80.1466 31.8494 79.2529 32.0974C79.0997 32.1387 78.9414 32.1542 78.7882 32.1801V32.1852Z" fill="white"></path></svg>