<svg width="38" height="38" viewBox="0 0 38 38" fill="none" xmlns="http://www.w3.org/2000/svg"><g opacity="0.2"><path d="M19.5909 8.9082C20.2826 8.91209 22.0133 8.92893 23.8529 9.00277L24.5058 9.03127C26.357 9.11807 28.2069 9.26834 29.1253 9.52354C30.3495 9.86813 31.3108 10.8708 31.6359 12.1429C32.1541 14.1638 32.2189 18.1046 32.2266 19.0593L32.2279 19.2562V19.4816C32.2189 20.4364 32.1541 24.3784 31.6359 26.398C31.3069 27.674 30.3444 28.678 29.1253 29.0174C28.2069 29.2726 26.357 29.4229 24.5058 29.5097L23.8529 29.5395C22.0133 29.612 20.2826 29.6301 19.5909 29.6327L19.2864 29.634H18.9561C17.4922 29.625 11.37 29.5589 9.42161 29.0174C8.19871 28.6728 7.23619 27.6701 6.91104 26.398C6.39286 24.3771 6.32809 20.4364 6.32031 19.4816V19.0593C6.32809 18.1046 6.39286 14.1625 6.91104 12.1429C7.24008 10.8669 8.20259 9.86295 9.4229 9.52483C11.37 8.98204 17.4935 8.91598 18.9574 8.9082H19.5909ZM16.6826 14.7377V23.8058L24.4553 19.2718L16.6826 14.7377Z" fill="white"></path></g></svg>