<svg width="24" height="24" viewBox="0 0 24 24" fill="none" xmlns="http://www.w3.org/2000/svg">
<path d="M18.75 10.3125C18.75 10.4617 18.6907 10.6048 18.5852 10.7102C18.4798 10.8157 18.3367 10.875 18.1875 10.875C18.0383 10.875 17.8952 10.8157 17.7898 10.7102C17.6843 10.6048 17.625 10.4617 17.625 10.3125V7.17094L12.9612 11.8355C12.8556 11.941 12.7125 12.0003 12.5632 12.0003C12.4139 12.0003 12.2708 11.941 12.1652 11.8355C12.0597 11.7299 12.0004 11.5868 12.0004 11.4375C12.0004 11.2882 12.0597 11.1451 12.1652 11.0395L16.8291 6.375H13.6875C13.5383 6.375 13.3952 6.31574 13.2898 6.21025C13.1843 6.10476 13.125 5.96168 13.125 5.8125C13.125 5.66332 13.1843 5.52024 13.2898 5.41475C13.3952 5.30926 13.5383 5.25 13.6875 5.25H18.1875C18.3367 5.25 18.4798 5.30926 18.5852 5.41475C18.6907 5.52024 18.75 5.66332 18.75 5.8125V10.3125ZM15.9375 12C15.7883 12 15.6452 12.0593 15.5398 12.1648C15.4343 12.2702 15.375 12.4133 15.375 12.5625V17.625H6.375V8.625H11.4375C11.5867 8.625 11.7298 8.56574 11.8352 8.46025C11.9407 8.35476 12 8.21168 12 8.0625C12 7.91332 11.9407 7.77024 11.8352 7.66475C11.7298 7.55926 11.5867 7.5 11.4375 7.5H6.375C6.07663 7.5 5.79048 7.61853 5.5795 7.8295C5.36853 8.04048 5.25 8.32663 5.25 8.625V17.625C5.25 17.9234 5.36853 18.2095 5.5795 18.4205C5.79048 18.6315 6.07663 18.75 6.375 18.75H15.375C15.6734 18.75 15.9595 18.6315 16.1705 18.4205C16.3815 18.2095 16.5 17.9234 16.5 17.625V12.5625C16.5 12.4133 16.4407 12.2702 16.3352 12.1648C16.2298 12.0593 16.0867 12 15.9375 12Z" fill="#1E2D37"/>
</svg>
