<svg width="102" height="36" viewBox="0 0 102 36" fill="none" xmlns="http://www.w3.org/2000/svg">
<g clip-path="url(#clip0_3950_10248)">
<path d="M15.0637 8.37C15.0637 4.88025 16.8525 1.8 19.5615 0H0V16.7378H19.5615C16.8525 14.9378 15.0637 11.8575 15.0637 8.36775" fill="#1E2D37"/>
<path d="M25.1083 0C20.4868 0 16.7383 3.74625 16.7383 8.37C16.7383 12.9937 20.4845 16.74 25.1083 16.74C29.732 16.74 33.476 12.9937 33.476 8.37C33.476 3.74625 29.7298 0 25.1083 0Z" fill="#1E2D37"/>
<path d="M15.0637 27.6197C15.0637 24.13 16.8525 21.052 19.5615 19.252H0V35.9897H19.5615C16.8525 34.1897 15.0637 31.1095 15.0637 27.6197Z" fill="#1E2D37"/>
<path d="M25.1083 19.248C20.4868 19.248 16.7383 22.9943 16.7383 27.618C16.7383 32.2418 20.4845 35.988 25.1083 35.988C29.732 35.988 33.476 32.2418 33.476 27.618C33.476 22.9943 29.7298 19.248 25.1083 19.248Z" fill="#1E2D37"/>
<path d="M44.8204 19.2559H41.8594V32.0516H44.8204V19.2559Z" fill="#1E2D37"/>
<path d="M60.3063 23.9979C60.8666 24.6369 61.1478 25.5369 61.1478 26.6934V32.0484H58.3691V27.4246C58.3691 26.2051 57.9191 25.5976 57.0168 25.5976C56.5668 25.5976 56.2068 25.7574 55.9391 26.0724C55.6713 26.3896 55.5363 26.8464 55.5363 27.4426V32.0484H52.7576V27.4246C52.7576 26.2051 52.3121 25.5976 51.4233 25.5976C50.9711 25.5976 50.6133 25.7529 50.3456 26.0634C50.0778 26.3739 49.9428 26.8351 49.9428 27.4426V32.0484H47.1641V23.2734H49.7223L49.8326 24.4434H49.9248C50.1453 23.9934 50.4738 23.6446 50.9126 23.4016C51.3513 23.1586 51.8576 23.0371 52.4291 23.0371C53.0006 23.0371 53.5316 23.1676 53.9838 23.4309C54.4338 23.6941 54.7826 24.0789 55.0256 24.5919H55.0976C55.3541 24.1036 55.7366 23.7234 56.2496 23.4489C56.7603 23.1744 57.3408 23.0371 57.9866 23.0371C58.9743 23.0371 59.7483 23.3566 60.3086 23.9979" fill="#1E2D37"/>
<path d="M70.6511 23.6334C71.2856 24.0294 71.7784 24.5784 72.1316 25.2781C72.4849 25.9801 72.6626 26.7744 72.6626 27.6631C72.6626 28.5519 72.4871 29.3326 72.1316 30.0391C71.7784 30.7456 71.2879 31.2969 70.6601 31.6929C70.0324 32.0889 69.3281 32.2869 68.5496 32.2869C67.9759 32.2869 67.4674 32.1744 67.0241 31.9494C66.5786 31.7244 66.2299 31.3981 65.9734 30.9706H65.9194V35.9971H63.1406V23.2756H65.7551L65.8654 24.3534H65.9396C66.1826 23.9259 66.5314 23.6019 66.9814 23.3746C67.4314 23.1496 67.9444 23.0371 68.5159 23.0371C69.3079 23.0371 70.0211 23.2351 70.6556 23.6311M69.2854 29.1706C69.6499 28.7746 69.8344 28.2729 69.8344 27.6631C69.8344 27.0534 69.6544 26.5539 69.2944 26.1646C68.9344 25.7754 68.4506 25.5796 67.8409 25.5796C67.2311 25.5796 66.7451 25.7754 66.3784 26.1646C66.0139 26.5539 65.8294 27.0534 65.8294 27.6631C65.8294 28.2729 66.0116 28.7746 66.3784 29.1706C66.7429 29.5666 67.2311 29.7646 67.8409 29.7646C68.4506 29.7646 68.9186 29.5666 69.2854 29.1706Z" fill="#1E2D37"/>
<path d="M83.4281 23.2789V32.0539H80.8519L80.7416 30.9762H80.6696C80.4244 31.4037 80.0779 31.7299 79.6279 31.9549C79.1756 32.1799 78.6581 32.2924 78.0731 32.2924C77.2811 32.2924 76.5701 32.0944 75.9424 31.6984C75.3146 31.3024 74.8219 30.7512 74.4619 30.0447C74.1019 29.3382 73.9219 28.5462 73.9219 27.6687C73.9219 26.7912 74.1019 25.9992 74.4619 25.2927C74.8219 24.5862 75.3146 24.0349 75.9424 23.6389C76.5701 23.2429 77.2789 23.0449 78.0731 23.0449C78.6581 23.0449 79.1756 23.1574 79.6279 23.3824C80.0779 23.6074 80.4266 23.9337 80.6696 24.3612H80.7416L80.8519 23.2834H83.4281V23.2789ZM77.3239 29.1739C77.6884 29.5699 78.1699 29.7679 78.7684 29.7679C79.3669 29.7679 79.8664 29.5699 80.2309 29.1739C80.5954 28.7779 80.7799 28.2762 80.7799 27.6664C80.7799 27.0567 80.5976 26.5572 80.2309 26.1679C79.8664 25.7787 79.3781 25.5829 78.7684 25.5829C78.1586 25.5829 77.6749 25.7787 77.3149 26.1679C76.9549 26.5572 76.7749 27.0567 76.7749 27.6664C76.7749 28.2762 76.9571 28.7779 77.3239 29.1739Z" fill="#1E2D37"/>
<path d="M96.5658 32.0507V25.708H94.6758V23.278H96.5658V20.8457H99.3445V23.278H101.75V25.708H99.3445V32.0507H96.5658Z" fill="#1E2D37"/>
<path d="M85.0742 27.6642C85.0742 28.5304 85.2677 29.3134 85.6592 30.0132C86.0485 30.7129 86.6042 31.2687 87.322 31.6759C88.042 32.0832 88.87 32.2879 89.8082 32.2879C89.815 32.2879 89.8195 32.2879 89.8262 32.2879C90.6587 32.2857 91.4057 32.1237 92.065 31.8042C92.7287 31.4802 93.262 31.0234 93.6647 30.4339L93.685 30.4047L91.5362 28.8994C91.084 29.4552 90.5102 29.7499 89.8285 29.7499C89.2435 29.7499 88.78 29.5609 88.4402 29.1829C88.0982 28.8049 87.9272 28.2987 87.9272 27.6664C87.9272 27.0342 88.0982 26.5279 88.4402 26.1499C88.7822 25.7719 89.2435 25.5829 89.8285 25.5829C90.5125 25.5829 91.084 25.8777 91.5362 26.4334L93.685 24.9282L93.6647 24.8989C93.262 24.3072 92.7287 23.8504 92.065 23.5287C91.4057 23.2092 90.6587 23.0472 89.8262 23.0449C89.8195 23.0449 89.815 23.0449 89.8082 23.0449C88.87 23.0449 88.042 23.2497 87.322 23.6569C86.602 24.0664 86.0485 24.6199 85.6592 25.3197C85.27 26.0217 85.0742 26.8024 85.0742 27.6687" fill="#1E2D37"/>
<path d="M51.6221 11.1054C52.0609 11.6297 52.2791 12.3182 52.2791 13.1709C52.2791 14.2914 51.8831 15.1667 51.0911 15.7944C50.2991 16.4222 49.1404 16.7349 47.6171 16.7349H41.8594V3.94141H46.7779C48.3011 3.94141 49.4554 4.24516 50.2406 4.85491C51.0259 5.46466 51.4196 6.31066 51.4196 7.39516C51.4196 8.05441 51.2801 8.61016 50.9989 9.06691C50.7176 9.52366 50.3171 9.86116 49.7929 10.0817V10.1357C50.5736 10.2572 51.1811 10.5812 51.6199 11.1054M48.0086 6.69091C47.7341 6.49066 47.2751 6.38941 46.6294 6.38941H44.7821V8.98591H46.6294C47.2751 8.98591 47.7364 8.88241 48.0086 8.67541C48.2831 8.46841 48.4204 8.13316 48.4204 7.66966C48.4204 7.20616 48.2831 6.89341 48.0086 6.69091ZM48.8029 13.9472C49.0954 13.7222 49.2416 13.3532 49.2416 12.8424C49.2416 12.3317 49.0954 11.9627 48.8029 11.7354C48.5104 11.5104 48.0221 11.3979 47.3404 11.3979H44.7821V14.2869H47.3404C48.0221 14.2869 48.5104 14.1744 48.8029 13.9494" fill="#1E2D37"/>
<path d="M60.0112 7.90908V10.5956C59.7074 10.5348 59.4014 10.5033 59.0977 10.5033C57.5249 10.5033 56.7397 11.4236 56.7397 13.2641V16.7381H53.9609V7.96308H56.5192L56.6294 9.46158H56.7037C56.9354 8.92608 57.2797 8.51433 57.7364 8.22858C58.1932 7.94283 58.7084 7.79883 59.2822 7.79883C59.5747 7.79883 59.8177 7.83483 60.0134 7.90908" fill="#1E2D37"/>
<path d="M61.5033 6.33528C61.1793 6.01803 61.0195 5.61078 61.0195 5.11128C61.0195 4.61178 61.1815 4.20003 61.5033 3.87828C61.825 3.55653 62.2435 3.39453 62.7565 3.39453C63.2695 3.39453 63.67 3.55653 63.9985 3.87828C64.327 4.20228 64.4913 4.61178 64.4913 5.11128C64.4913 5.61078 64.327 6.00453 63.9985 6.32628C63.67 6.65028 63.256 6.81003 62.7565 6.81003C62.257 6.81003 61.8273 6.65253 61.5033 6.33528ZM61.366 7.96203H64.1448V16.737H61.366V7.96203Z" fill="#1E2D37"/>
<path d="M75.2937 7.96252V16.7375H72.7174L72.6072 15.6598H72.5329C72.2899 16.0873 71.9412 16.4135 71.4912 16.6385C71.0389 16.8635 70.5214 16.976 69.9364 16.976C69.1444 16.976 68.4334 16.778 67.8057 16.382C67.1779 15.986 66.6852 15.4348 66.3252 14.7283C65.9652 14.0218 65.7852 13.2298 65.7852 12.3523C65.7852 11.4748 65.9652 10.6828 66.3252 9.97627C66.6852 9.26977 67.1779 8.71852 67.8057 8.32252C68.4334 7.92652 69.1422 7.72852 69.9364 7.72852C70.5214 7.72852 71.0389 7.84102 71.4912 8.06602C71.9412 8.29102 72.2899 8.61727 72.5329 9.04477H72.6072L72.7174 7.96702H75.2937V7.96252ZM69.1894 13.8575C69.5539 14.2535 70.0354 14.4515 70.6339 14.4515C71.2324 14.4515 71.7319 14.2535 72.0964 13.8575C72.4609 13.4615 72.6454 12.9598 72.6454 12.35C72.6454 11.7403 72.4632 11.2408 72.0964 10.8515C71.7319 10.4623 71.2437 10.2665 70.6339 10.2665C70.0242 10.2665 69.5404 10.4623 69.1804 10.8515C68.8204 11.2408 68.6404 11.7403 68.6404 12.35C68.6404 12.9598 68.8227 13.4615 69.1894 13.8575Z" fill="#1E2D37"/>
<path d="M85.2456 8.69436C85.8374 9.34011 86.1321 10.2424 86.1321 11.3989V16.7359H83.3534V12.1121C83.3534 10.8926 82.8426 10.2851 81.8189 10.2851C81.2946 10.2851 80.8829 10.4426 80.5859 10.7599C80.2866 11.0771 80.1381 11.5339 80.1381 12.1301V16.7359H77.3594V7.96086H79.9176L80.0279 9.13086H80.1201C80.3519 8.68086 80.7029 8.33211 81.1709 8.08911C81.6389 7.84611 82.1901 7.72461 82.8246 7.72461C83.8484 7.72461 84.6561 8.04861 85.2479 8.69436" fill="#1E2D37"/>
</g>
<defs>
<clipPath id="clip0_3950_10248">
<rect width="101.749" height="36" fill="white"/>
</clipPath>
</defs>
</svg>
